<svg id="sw-js-blob-svg" viewBox="0 0 100 100" xmlns="http://www.w3.org/2000/svg">
    <defs>
        <linearGradient id="sw-gradient" x1="0" x2="1" y1="1" y2="0">
            <stop id="stop1" stop-color="rgba(57, 153, 132, 1)" offset="0%"></stop>
            <stop id="stop2" stop-color="rgba(24.307, 62.299, 53.988, 1)" offset="100%"></stop>
        </linearGradient>
    </defs>
    <path fill="url(#sw-gradient)" d="M21.2,-25C27.9,-19.6,34.1,-13.3,36.6,-5.5C39.1,2.3,37.9,11.8,33.6,19.4C29.2,27.1,21.7,33,13.2,36.1C4.6,39.2,-4.9,39.5,-13.7,36.7C-22.5,33.9,-30.4,28,-35,20.2C-39.6,12.3,-40.9,2.4,-37.8,-5.1C-34.6,-12.7,-27,-17.9,-20,-23.3C-13,-28.7,-6.5,-34.1,0.4,-34.6C7.2,-35,14.4,-30.4,21.2,-25Z" width="100%" height="100%" transform="translate(50 50)" stroke-width="0" style="transition: all 0.3s ease 0s;"></path>
</svg>
